<svg xmlns="http://www.w3.org/2000/svg" xmlns:xlink="http://www.w3.org/1999/xlink" width="500" zoomAndPan="magnify" viewBox="0 0 375 374.999991" height="500" preserveAspectRatio="xMidYMid meet" version="1.0"><defs><g/><clipPath id="f16d82ff10"><path d="M 9.257812 82 L 365.507812 82 L 365.507812 293 L 9.257812 293 Z M 9.257812 82 " clip-rule="nonzero"/></clipPath></defs><g fill="#000000" fill-opacity="1"><g transform="translate(182.709009, 193.136907)"><g><path d="M 1.390625 -2.625 L 0.8125 -1.53125 L -9.296875 -6.859375 L -8.375 -8.609375 L 1.8125 -7.171875 L 1.875 -7.3125 L -5.0625 -14.890625 L -4.171875 -16.59375 L 5.9375 -11.265625 L 5.34375 -10.125 L -2.90625 -14.484375 L -3.03125 -14.34375 L 3.6875 -6.984375 L 3.0625 -5.796875 L -6.796875 -7.1875 L -6.859375 -6.984375 Z M 1.390625 -2.625 "/></g></g></g><g clip-path="url(#f16d82ff10)"><path fill="#000000" d="M 65.703125 224.347656 L 72.265625 224.347656 C 75.078125 224.347656 77.328125 226.597656 77.328125 229.410156 C 77.328125 232.222656 75.078125 234.472656 72.265625 234.472656 L 65.703125 234.472656 C 62.886719 234.472656 60.636719 232.222656 60.636719 229.410156 C 60.636719 226.597656 62.886719 224.347656 65.703125 224.347656 Z M 57.261719 82.578125 L 96.457031 82.578125 C 98.519531 82.578125 100.394531 83.890625 100.957031 85.953125 L 138.835938 209.71875 C 139.398438 211.78125 141.273438 213.09375 143.335938 213.09375 C 145.398438 213.09375 147.273438 211.78125 147.835938 209.90625 L 188.90625 85.203125 C 189.46875 83.328125 191.34375 82.015625 193.40625 82.015625 L 225.847656 82.015625 C 227.910156 82.015625 229.785156 83.328125 230.347656 85.203125 L 271.417969 209.71875 C 272.167969 211.78125 273.855469 213.09375 275.917969 212.90625 C 277.980469 212.90625 279.855469 211.59375 280.417969 209.53125 L 318.296875 85.765625 C 318.859375 83.703125 320.734375 82.390625 322.796875 82.390625 L 360.679688 82.390625 C 362.179688 82.390625 363.679688 83.140625 364.617188 84.453125 C 365.554688 85.765625 365.742188 87.265625 365.179688 88.765625 L 297.105469 289.605469 C 296.355469 291.667969 294.667969 292.792969 292.605469 292.792969 L 259.414062 292.792969 C 257.351562 292.792969 255.664062 291.480469 254.914062 289.605469 L 213.472656 169.214844 C 212.722656 167.339844 211.03125 166.027344 208.96875 166.027344 C 206.90625 166.027344 205.21875 167.339844 204.46875 169.214844 L 163.027344 289.792969 C 162.277344 291.667969 160.589844 292.980469 158.527344 292.980469 L 115.394531 292.980469 C 114.832031 292.230469 114.644531 291.292969 114.644531 290.167969 C 114.644531 287.542969 116.707031 285.292969 119.332031 285.105469 L 130.585938 285.105469 C 133.398438 285.105469 135.648438 282.855469 135.648438 280.042969 C 135.648438 277.226562 133.398438 274.976562 130.585938 274.976562 L 88.015625 274.976562 C 85.203125 274.976562 82.953125 272.726562 82.953125 269.914062 C 82.953125 267.101562 85.203125 264.851562 88.015625 264.851562 L 116.519531 264.851562 C 119.332031 264.851562 121.582031 262.601562 121.582031 259.789062 C 121.582031 256.976562 119.332031 254.726562 116.519531 254.726562 L 100.207031 254.726562 C 97.394531 254.726562 95.144531 252.476562 95.144531 249.664062 C 95.144531 246.847656 97.394531 244.597656 100.207031 244.597656 L 105.269531 244.597656 C 107.894531 244.597656 110.144531 242.347656 110.144531 239.535156 C 110.144531 236.722656 107.894531 234.472656 105.082031 234.472656 L 86.140625 234.472656 C 83.328125 234.472656 81.078125 232.222656 81.078125 229.410156 C 81.078125 226.597656 83.328125 224.347656 86.140625 224.347656 L 118.019531 224.347656 C 120.832031 224.347656 123.085938 222.097656 123.085938 219.285156 C 123.085938 216.46875 120.832031 214.21875 118.019531 214.21875 L 82.953125 214.21875 C 80.140625 214.21875 77.890625 211.96875 77.890625 209.15625 C 77.890625 206.34375 80.140625 204.09375 82.953125 204.09375 L 101.144531 204.09375 C 103.957031 204.09375 106.207031 201.84375 106.207031 199.03125 C 106.207031 196.21875 103.957031 193.96875 101.144531 193.96875 L 82.765625 193.96875 C 79.953125 193.96875 77.703125 191.71875 77.703125 188.90625 C 77.703125 186.089844 79.953125 183.839844 82.765625 183.839844 L 86.703125 183.839844 C 89.515625 183.839844 91.765625 181.589844 91.765625 178.777344 C 91.765625 175.964844 89.515625 173.714844 86.703125 173.714844 L 71.703125 173.714844 C 68.890625 173.714844 66.640625 171.464844 66.640625 168.652344 C 66.640625 165.839844 68.890625 163.589844 71.703125 163.589844 L 94.769531 163.589844 C 97.582031 163.589844 99.832031 161.339844 99.832031 158.527344 C 99.832031 155.710938 97.582031 153.460938 94.769531 153.460938 L 54.261719 153.460938 C 51.449219 153.460938 49.199219 151.210938 49.199219 148.398438 C 49.199219 145.585938 51.449219 143.335938 54.261719 143.335938 L 75.078125 143.335938 C 77.890625 143.335938 80.140625 141.085938 80.140625 138.273438 C 80.140625 135.835938 78.265625 133.773438 76.015625 133.210938 L 64.390625 133.210938 C 61.574219 133.210938 59.324219 130.960938 59.324219 128.144531 C 59.324219 125.332031 61.574219 123.082031 64.390625 123.082031 L 72.828125 123.082031 C 75.078125 122.519531 76.765625 120.457031 76.765625 118.207031 C 76.765625 115.394531 74.515625 113.144531 71.703125 113.144531 L 66.828125 113.144531 C 66.640625 113.144531 66.265625 113.144531 65.890625 113.144531 L 48.074219 113.144531 C 45.261719 113.144531 43.011719 110.894531 43.011719 108.082031 C 43.011719 105.269531 45.261719 103.019531 48.074219 103.019531 L 58.574219 103.019531 C 61.386719 103.019531 63.640625 100.769531 63.640625 97.953125 C 63.640625 95.515625 61.761719 93.453125 59.511719 92.890625 L 39.449219 92.890625 C 36.636719 92.890625 34.386719 90.640625 34.386719 87.828125 C 34.386719 85.015625 36.636719 82.765625 39.449219 82.765625 L 57.261719 82.765625 Z M 25.570312 143.148438 L 38.699219 143.148438 C 41.511719 143.148438 43.761719 145.398438 43.761719 148.210938 C 43.761719 151.023438 41.511719 153.273438 38.699219 153.273438 L 25.570312 153.273438 C 22.757812 153.273438 20.507812 151.023438 20.507812 148.210938 C 20.507812 145.398438 22.757812 143.148438 25.570312 143.148438 Z M 14.320312 203.90625 L 63.640625 203.90625 C 66.453125 203.90625 68.703125 206.15625 68.703125 208.96875 C 68.703125 211.78125 66.453125 214.03125 63.640625 214.03125 L 14.320312 214.03125 C 11.507812 214.03125 9.257812 211.78125 9.257812 208.96875 C 9.257812 206.34375 11.507812 203.90625 14.320312 203.90625 Z M 77.515625 244.597656 L 82.390625 244.597656 C 85.203125 244.597656 87.453125 246.847656 87.453125 249.664062 C 87.453125 252.476562 85.203125 254.726562 82.390625 254.726562 L 77.515625 254.726562 C 74.703125 254.726562 72.453125 252.476562 72.453125 249.664062 C 72.453125 246.847656 74.890625 244.597656 77.515625 244.597656 Z M 45.074219 183.652344 L 68.703125 183.652344 C 71.515625 183.652344 73.765625 185.902344 73.765625 188.71875 C 73.765625 191.53125 71.515625 193.78125 68.703125 193.78125 L 45.074219 193.78125 C 42.261719 193.78125 40.011719 191.53125 40.011719 188.71875 C 40.011719 185.902344 42.261719 183.652344 45.074219 183.652344 Z M 31.382812 102.832031 L 35.886719 102.832031 C 38.699219 102.832031 40.949219 105.082031 40.949219 107.894531 C 40.949219 110.707031 38.699219 112.957031 35.886719 112.957031 L 31.382812 112.957031 C 28.570312 112.957031 26.320312 110.707031 26.320312 107.894531 C 26.320312 105.082031 28.570312 102.832031 31.382812 102.832031 Z M 31.382812 102.832031 " fill-opacity="1" fill-rule="evenodd"/></g></svg>